<svg width="20" height="18" viewBox="0 0 20 18" fill="none" xmlns="http://www.w3.org/2000/svg">
<path d="M10 5C10.414 5 10.7497 5.33579 10.7497 5.75V10.25C10.7497 10.6642 10.414 11 10 11C9.58596 11 9.25031 10.6642 9.25031 10.25V5.75C9.25031 5.33579 9.58596 5 10 5Z" fill="white"/>
<path d="M10.9996 13C10.9996 13.5523 10.5521 14 10 14C9.44794 14 9.00041 13.5523 9.00041 13C9.00041 12.4477 9.44794 12 10 12C10.5521 12 10.9996 12.4477 10.9996 13Z" fill="white"/>
<path fill-rule="evenodd" clip-rule="evenodd" d="M12.7069 1.54502C11.5173 -0.515004 8.48275 -0.515011 7.29308 1.54502L0.409368 13.4649C-0.780535 15.5253 0.775899 18 3.11629 18H16.8837C19.2241 18 20.7805 15.5253 19.5906 13.4649L12.7069 1.54502ZM8.59137 2.2954C9.20383 1.23487 10.7962 1.23487 11.4086 2.2954L18.2923 14.2153C18.8656 15.2079 18.1489 16.5 16.8837 16.5H3.11629C1.85112 16.5 1.13442 15.2079 1.70766 14.2153L8.59137 2.2954Z" fill="white"/>
</svg>
